<svg width="16" height="16" viewBox="0 0 16 16" fill="none" xmlns="http://www.w3.org/2000/svg">
<path d="M10.6511 9.64772H10.1245L9.9378 9.46772C10.7378 8.53438 11.1511 7.26105 10.9245 5.90772C10.6111 4.05438 9.06447 2.57438 7.1978 2.34772C4.3778 2.00105 2.00447 4.37438 2.35113 7.19438C2.5778 9.06105 4.0578 10.6077 5.91113 10.921C7.26447 11.1477 8.5378 10.7344 9.47113 9.93438L9.65113 10.121V10.6477L12.4845 13.481C12.7578 13.7544 13.2045 13.7544 13.4778 13.481C13.7511 13.2077 13.7511 12.761 13.4778 12.4877L10.6511 9.64772ZM6.65113 9.64772C4.99113 9.64772 3.65113 8.30772 3.65113 6.64772C3.65113 4.98772 4.99113 3.64772 6.65113 3.64772C8.31113 3.64772 9.65113 4.98772 9.65113 6.64772C9.65113 8.30772 8.31113 9.64772 6.65113 9.64772Z" fill="black"/>
</svg>
